<svg width="24" height="24" viewBox="0 0 24 24" fill="none" xmlns="http://www.w3.org/2000/svg">
<path d="M4.22222 2C2.99667 2 2 2.99667 2 4.22222V19.7778C2 21.0033 2.99667 22 4.22222 22H11.579H14.6823H19.7778C21.0033 22 22 21.0033 22 19.7778V4.22222C22 2.99667 21.0033 2 19.7778 2H4.22222Z" fill="#FFFCFA"/>
<path d="M4.22222 2C2.99667 2 2 2.99667 2 4.22222V19.7778C2 21.0033 2.99667 22 4.22222 22H11.579H14.6823H19.7778C21.0033 22 22 21.0033 22 19.7778V4.22222C22 2.99667 21.0033 2 19.7778 2H4.22222ZM4.22222 4.22222H19.7778L19.7799 19.7778H14.6823V15.3724H17.3103L17.701 12.3451H14.6997V10.4158C14.6997 9.54024 14.9437 8.94879 16.1992 8.94879H17.7856V6.24696C17.0134 6.16807 16.238 6.12972 15.4614 6.13194C13.1569 6.13194 11.579 7.53844 11.579 10.1207V12.3494H8.97483V15.3767H11.579V19.7778H4.22222V4.22222Z" fill="#100600"/>
</svg>
