<svg width="24" height="24" viewBox="0 0 24 24" fill="none" xmlns="http://www.w3.org/2000/svg">
<path d="M23 3C22.142 3.52084 20.4205 4.23067 19.4085 4.43541C19.3788 4.44328 19.3546 4.45341 19.326 4.46128C18.4317 3.55909 17.2063 3 15.85 3C13.1165 3 10.9 5.26673 10.9 8.06218C10.9 8.20955 10.8879 8.48066 10.9 8.62465C7.2117 8.62465 4.4045 6.64927 2.3915 4.12493C2.1726 4.68739 2.0769 5.57609 2.0769 6.41079C2.0769 7.98681 3.2814 9.53472 5.1569 10.4943C4.8115 10.5854 4.4309 10.6506 4.0349 10.6506C3.3958 10.6506 2.7193 10.4785 2.1 9.95657C2.1 9.97569 2.1 9.99369 2.1 10.0139C2.1 12.2165 4.3858 13.7161 6.4186 14.1334C6.0061 14.382 5.1745 14.4068 4.7686 14.4068C4.4826 14.4068 3.4706 14.2729 3.2 14.2212C3.7654 16.0267 5.8048 17.0414 7.7485 17.0774C6.2283 18.2968 5.1734 18.749 2.0604 18.749H1C2.9668 20.0382 5.4715 21 7.9817 21C16.1547 21 20.8 14.6295 20.8 8.62465C20.8 8.5279 20.7978 8.32542 20.7945 8.12181C20.7945 8.10156 20.8 8.08243 20.8 8.06218C20.8 8.03181 20.7912 8.00256 20.7912 7.97219C20.7879 7.8192 20.7846 7.67633 20.7813 7.60209C21.6503 6.96088 22.4038 6.16105 23 5.24986C22.2025 5.61209 21.3467 5.85507 20.448 5.96532C21.3654 5.40285 22.6689 4.06193 23 3Z" fill="#FFFCFA"/>
<path d="M23 3C22.142 3.52084 20.4205 4.23067 19.4085 4.43541C19.3788 4.44328 19.3546 4.45341 19.326 4.46128C18.4317 3.55909 17.2063 3 15.85 3C13.1165 3 10.9 5.26673 10.9 8.06218C10.9 8.20955 10.8879 8.48066 10.9 8.62465C7.2117 8.62465 4.4045 6.64927 2.3915 4.12493C2.1726 4.68739 2.0769 5.57609 2.0769 6.41079C2.0769 7.98681 3.2814 9.53472 5.1569 10.4943C4.8115 10.5854 4.4309 10.6506 4.0349 10.6506C3.3958 10.6506 2.7193 10.4785 2.1 9.95657C2.1 9.97569 2.1 9.99369 2.1 10.0139C2.1 12.2165 4.3858 13.7161 6.4186 14.1334C6.0061 14.382 5.1745 14.4068 4.7686 14.4068C4.4826 14.4068 3.4706 14.2729 3.2 14.2212C3.7654 16.0267 5.8048 17.0414 7.7485 17.0774C6.2283 18.2968 5.1734 18.749 2.0604 18.749H1C2.9668 20.0382 5.4715 21 7.9817 21C16.1547 21 20.8 14.6295 20.8 8.62465C20.8 8.5279 20.7978 8.32542 20.7945 8.12181C20.7945 8.10156 20.8 8.08243 20.8 8.06218C20.8 8.03181 20.7912 8.00256 20.7912 7.97219C20.7879 7.8192 20.7846 7.67633 20.7813 7.60209C21.6503 6.96088 22.4038 6.16105 23 5.24986C22.2025 5.61209 21.3467 5.85507 20.448 5.96532C21.3654 5.40285 22.6689 4.06193 23 3ZM18.6 8.62465C18.6 13.2144 15.3473 18.0729 9.2874 18.6849C10.108 18.0898 10.9 17.245 10.9 17.245C10.9 17.245 7.6 14.2504 7.3525 10.3379C8.491 10.6934 9.6768 10.8745 10.9 10.8745H13.1V8.06218C13.1022 6.50978 14.332 5.25098 15.85 5.25098C17.3691 5.25098 18.6 6.50978 18.6 8.06331C18.6 8.06331 18.6 8.53578 18.6 8.62465Z" fill="#100600"/>
</svg>
