<svg width="24" height="24" viewBox="0 0 24 24" fill="none" xmlns="http://www.w3.org/2000/svg">
<path d="M3.4041 4.41797C5.1201 3.99997 12 4 12 4C12 4 18.8799 3.99997 20.5959 4.41797C21.5419 4.64797 22.2872 5.32555 22.5402 6.18555C23 7.74555 23 12 23 12C23 12 23 16.2545 22.5402 17.8145C22.2872 18.6745 21.5419 19.352 20.5959 19.582C18.8799 20 12 20 12 20C12 20 5.1201 20 3.4041 19.582C2.4581 19.352 1.71277 18.6755 1.45977 17.8145C0.999966 16.2545 1 12 1 12C1 12 0.999966 7.74555 1.45977 6.18555C1.71277 5.32555 2.457 4.64797 3.4041 4.41797Z" fill="#FFFCFA"/>
<path d="M12 4C12 4 5.1201 3.99997 3.4041 4.41797C2.457 4.64797 1.71277 5.32555 1.45977 6.18555C0.999966 7.74555 1 12 1 12C1 12 0.999966 16.2545 1.45977 17.8145C1.71277 18.6755 2.4581 19.352 3.4041 19.582C5.1201 20 12 20 12 20C12 20 18.8799 20 20.5959 19.582C21.5419 19.352 22.2872 18.6745 22.5402 17.8145C23 16.2545 23 12 23 12C23 12 23 7.74555 22.5402 6.18555C22.2872 5.32555 21.5419 4.64797 20.5959 4.41797C18.8799 3.99997 12 4 12 4ZM12 6C15.1702 6 19.14 6.13361 20.0266 6.34961C20.2125 6.39461 20.3648 6.53312 20.4154 6.70312C20.6805 7.60113 20.8 10.342 20.8 12C20.8 13.658 20.6805 16.3979 20.4154 17.2969C20.3659 17.4659 20.2136 17.6044 20.0266 17.6504C19.1411 17.8664 15.1702 18 12 18C8.8309 18 4.86114 17.8664 3.97344 17.6504C3.78754 17.6054 3.63517 17.4669 3.58457 17.2969C3.31947 16.3989 3.2 13.658 3.2 12C3.2 10.342 3.31947 7.60117 3.58457 6.70117C3.63407 6.53317 3.78644 6.39461 3.97344 6.34961C4.85894 6.13361 8.8298 6 12 6ZM9.8 8.53516V15.4648L16.4 12L9.8 8.53516Z" fill="#100600"/>
</svg>
